<svg xmlns="http://www.w3.org/2000/svg" viewBox="0 0 2400 1400" width="2400" height="1400"><defs><linearGradient id="l" x1="0" y1="0" x2="0" y2="1"><stop offset="0" stop-color="#B9CAD6"/><stop offset="1" stop-color="#F3EADB"/></linearGradient></defs><rect width="2400" height="1400" fill="url(#l)"/><g opacity="0.7" fill="#fff" transform="translate(1500 230) scale(1.6)"><ellipse cx="0" cy="0" rx="90" ry="26"/><ellipse cx="50" cy="-14" rx="60" ry="30"/><ellipse cx="-45" cy="-8" rx="50" ry="22"/></g><g opacity="0.6" fill="#fff" transform="translate(2050 380) scale(1.1)"><ellipse cx="0" cy="0" rx="90" ry="26"/><ellipse cx="50" cy="-14" rx="60" ry="30"/><ellipse cx="-45" cy="-8" rx="50" ry="22"/></g><g opacity="0.5" fill="#fff" transform="translate(700 300) scale(1.2)"><ellipse cx="0" cy="0" rx="90" ry="26"/><ellipse cx="50" cy="-14" rx="60" ry="30"/><ellipse cx="-45" cy="-8" rx="50" ry="22"/></g><rect x="0" y="820" width="2400" height="80" fill="#9DB597"/><rect x="0" y="850" width="2400" height="60" fill="#86A383"/><ellipse cx="0" cy="815.5" rx="33.0" ry="24.5" fill="#56735E"/><ellipse cx="44" cy="804.3636363636364" rx="33.0" ry="35.63636363636363" fill="#56735E"/><ellipse cx="88" cy="809.1363636363636" rx="33.0" ry="30.863636363636363" fill="#56735E"/><ellipse cx="132" cy="813.9090909090909" rx="33.0" ry="26.090909090909086" fill="#56735E"/><ellipse cx="176" cy="802.7727272727273" rx="33.0" ry="37.22727272727272" fill="#56735E"/><ellipse cx="220" cy="807.5454545454545" rx="33.0" ry="32.45454545454545" fill="#56735E"/><ellipse cx="264" cy="812.3181818181819" rx="33.0" ry="27.68181818181818" fill="#56735E"/><ellipse cx="308" cy="801.1818181818181" rx="33.0" ry="38.81818181818182" fill="#56735E"/><ellipse cx="352" cy="805.9545454545455" rx="33.0" ry="34.04545454545455" fill="#56735E"/><ellipse cx="396" cy="810.7272727272727" rx="33.0" ry="29.27272727272727" fill="#56735E"/><ellipse cx="440" cy="815.5" rx="33.0" ry="24.5" fill="#56735E"/><ellipse cx="484" cy="804.3636363636364" rx="33.0" ry="35.63636363636363" fill="#56735E"/><ellipse cx="528" cy="809.1363636363636" rx="33.0" ry="30.863636363636363" fill="#56735E"/><ellipse cx="572" cy="813.9090909090909" rx="33.0" ry="26.090909090909086" fill="#56735E"/><ellipse cx="616" cy="802.7727272727273" rx="33.0" ry="37.22727272727272" fill="#56735E"/><ellipse cx="660" cy="807.5454545454545" rx="33.0" ry="32.45454545454545" fill="#56735E"/><g transform="translate(1880 840) scale(1.25)" fill="#556B63"><rect x="-14" y="-120" width="28" height="120"/><path d="M-14 -120 L0 -175 L14 -120Z"/><rect x="14" y="-55" width="70" height="55"/><path d="M14 -55 L49 -85 L84 -55Z"/></g><ellipse cx="1960" cy="819.0" rx="30.0" ry="21.0" fill="#56735E"/><ellipse cx="2000" cy="809.4545454545455" rx="30.0" ry="30.545454545454543" fill="#56735E"/><ellipse cx="2040" cy="813.5454545454545" rx="30.0" ry="26.454545454545453" fill="#56735E"/><ellipse cx="2080" cy="817.6363636363636" rx="30.0" ry="22.36363636363636" fill="#56735E"/><ellipse cx="2120" cy="808.0909090909091" rx="30.0" ry="31.909090909090907" fill="#56735E"/><ellipse cx="2160" cy="812.1818181818181" rx="30.0" ry="27.818181818181817" fill="#56735E"/><ellipse cx="2200" cy="816.2727272727273" rx="30.0" ry="23.727272727272727" fill="#56735E"/><ellipse cx="2240" cy="806.7272727272727" rx="30.0" ry="33.27272727272727" fill="#56735E"/><ellipse cx="2280" cy="810.8181818181819" rx="30.0" ry="29.18181818181818" fill="#56735E"/><ellipse cx="2320" cy="814.9090909090909" rx="30.0" ry="25.09090909090909" fill="#56735E"/><ellipse cx="2360" cy="819.0" rx="30.0" ry="21.0" fill="#56735E"/><path d="M68 750 L460.0 666.8 L852 750Z" fill="#2A3430"/><rect x="80" y="750" width="760" height="260" fill="#3C4A44"/><rect x="90" y="750" width="2" height="260" fill="#00000022"/><rect x="108" y="750" width="2" height="260" fill="#00000022"/><rect x="126" y="750" width="2" height="260" fill="#00000022"/><rect x="144" y="750" width="2" height="260" fill="#00000022"/><rect x="162" y="750" width="2" height="260" fill="#00000022"/><rect x="180" y="750" width="2" height="260" fill="#00000022"/><rect x="198" y="750" width="2" height="260" fill="#00000022"/><rect x="216" y="750" width="2" height="260" fill="#00000022"/><rect x="234" y="750" width="2" height="260" fill="#00000022"/><rect x="252" y="750" width="2" height="260" fill="#00000022"/><rect x="270" y="750" width="2" height="260" fill="#00000022"/><rect x="288" y="750" width="2" height="260" fill="#00000022"/><rect x="306" y="750" width="2" height="260" fill="#00000022"/><rect x="324" y="750" width="2" height="260" fill="#00000022"/><rect x="342" y="750" width="2" height="260" fill="#00000022"/><rect x="360" y="750" width="2" height="260" fill="#00000022"/><rect x="378" y="750" width="2" height="260" fill="#00000022"/><rect x="396" y="750" width="2" height="260" fill="#00000022"/><rect x="414" y="750" width="2" height="260" fill="#00000022"/><rect x="432" y="750" width="2" height="260" fill="#00000022"/><rect x="450" y="750" width="2" height="260" fill="#00000022"/><rect x="468" y="750" width="2" height="260" fill="#00000022"/><rect x="486" y="750" width="2" height="260" fill="#00000022"/><rect x="504" y="750" width="2" height="260" fill="#00000022"/><rect x="522" y="750" width="2" height="260" fill="#00000022"/><rect x="540" y="750" width="2" height="260" fill="#00000022"/><rect x="558" y="750" width="2" height="260" fill="#00000022"/><rect x="576" y="750" width="2" height="260" fill="#00000022"/><rect x="594" y="750" width="2" height="260" fill="#00000022"/><rect x="612" y="750" width="2" height="260" fill="#00000022"/><rect x="630" y="750" width="2" height="260" fill="#00000022"/><rect x="648" y="750" width="2" height="260" fill="#00000022"/><rect x="666" y="750" width="2" height="260" fill="#00000022"/><rect x="684" y="750" width="2" height="260" fill="#00000022"/><rect x="702" y="750" width="2" height="260" fill="#00000022"/><rect x="720" y="750" width="2" height="260" fill="#00000022"/><rect x="738" y="750" width="2" height="260" fill="#00000022"/><rect x="756" y="750" width="2" height="260" fill="#00000022"/><rect x="774" y="750" width="2" height="260" fill="#00000022"/><rect x="792" y="750" width="2" height="260" fill="#00000022"/><rect x="810" y="750" width="2" height="260" fill="#00000022"/><rect x="828" y="750" width="2" height="260" fill="#00000022"/><rect x="315.6" y="828.0" width="288.8" height="182.0" fill="#1E2623"/><rect x="315.6" y="828.0" width="288.8" height="10" fill="#00000055"/><rect x="0" y="900" width="2400" height="500" fill="#CFC6B6"/><path d="M-200 1400 L40 900" stroke="#BFB5A2" stroke-width="3"/><path d="M-40 1400 L200 900" stroke="#BFB5A2" stroke-width="3"/><path d="M120 1400 L360 900" stroke="#BFB5A2" stroke-width="3"/><path d="M280 1400 L520 900" stroke="#BFB5A2" stroke-width="3"/><path d="M440 1400 L680 900" stroke="#BFB5A2" stroke-width="3"/><path d="M600 1400 L840 900" stroke="#BFB5A2" stroke-width="3"/><path d="M760 1400 L1000 900" stroke="#BFB5A2" stroke-width="3"/><path d="M920 1400 L1160 900" stroke="#BFB5A2" stroke-width="3"/><path d="M1080 1400 L1320 900" stroke="#BFB5A2" stroke-width="3"/><path d="M1240 1400 L1480 900" stroke="#BFB5A2" stroke-width="3"/><path d="M1400 1400 L1640 900" stroke="#BFB5A2" stroke-width="3"/><path d="M1560 1400 L1800 900" stroke="#BFB5A2" stroke-width="3"/><path d="M1720 1400 L1960 900" stroke="#BFB5A2" stroke-width="3"/><path d="M1880 1400 L2120 900" stroke="#BFB5A2" stroke-width="3"/><path d="M2040 1400 L2280 900" stroke="#BFB5A2" stroke-width="3"/><path d="M2200 1400 L2440 900" stroke="#BFB5A2" stroke-width="3"/><path d="M2360 1400 L2600 900" stroke="#BFB5A2" stroke-width="3"/><path d="M2520 1400 L2760 900" stroke="#BFB5A2" stroke-width="3"/><rect x="840" y="870" width="5" height="40" fill="#7F8A84"/><rect x="900" y="870" width="5" height="40" fill="#7F8A84"/><rect x="960" y="870" width="5" height="40" fill="#7F8A84"/><rect x="1020" y="870" width="5" height="40" fill="#7F8A84"/><rect x="1080" y="870" width="5" height="40" fill="#7F8A84"/><rect x="1140" y="870" width="5" height="40" fill="#7F8A84"/><rect x="1200" y="870" width="5" height="40" fill="#7F8A84"/><rect x="1260" y="870" width="5" height="40" fill="#7F8A84"/><rect x="1320" y="870" width="5" height="40" fill="#7F8A84"/><rect x="1380" y="870" width="5" height="40" fill="#7F8A84"/><rect x="1440" y="870" width="5" height="40" fill="#7F8A84"/><rect x="1500" y="870" width="5" height="40" fill="#7F8A84"/><rect x="1560" y="870" width="5" height="40" fill="#7F8A84"/><rect x="1620" y="870" width="5" height="40" fill="#7F8A84"/><rect x="1680" y="870" width="5" height="40" fill="#7F8A84"/><rect x="1740" y="870" width="5" height="40" fill="#7F8A84"/><rect x="1800" y="870" width="5" height="40" fill="#7F8A84"/><rect x="1860" y="870" width="5" height="40" fill="#7F8A84"/><rect x="1920" y="870" width="5" height="40" fill="#7F8A84"/><rect x="1980" y="870" width="5" height="40" fill="#7F8A84"/><rect x="2040" y="870" width="5" height="40" fill="#7F8A84"/><rect x="2100" y="870" width="5" height="40" fill="#7F8A84"/><rect x="2160" y="870" width="5" height="40" fill="#7F8A84"/><rect x="2220" y="870" width="5" height="40" fill="#7F8A84"/><rect x="2280" y="870" width="5" height="40" fill="#7F8A84"/><rect x="2340" y="870" width="5" height="40" fill="#7F8A84"/><rect x="840" y="870" width="1560" height="4" fill="#7F8A84"/><rect x="840" y="890.0" width="1560" height="3" fill="#7F8A84"/><g transform="translate(980 1150) scale(1.18)"><rect x="-6" y="-8" width="330" height="10" rx="3" fill="#00000022"/><path d="M0 0 V-150 Q0 -170 20 -172 H250 Q300 -170 312 -120 L320 -40 V0 Z" fill="#F7F5F0" stroke="#D3CBBB" stroke-width="3"/><rect x="0" y="-62" width="320" height="14" fill="#14284B"/><rect x="0" y="-44" width="320" height="5" fill="#B89D6E"/><rect x="28" y="-135" width="80" height="48" rx="8" fill="#2B3A55"/><rect x="200" y="-135" width="78" height="48" rx="8" fill="#2B3A55"/><rect x="138" y="-150" width="44" height="130" rx="5" fill="#E5DFD3" stroke="#CFC6B6" stroke-width="3"/><rect x="172" y="-90" width="5" height="16" rx="2" fill="#8A8F95"/><path d="M-2 -8 L-90 -2" stroke="#2B2F33" stroke-width="9" stroke-linecap="round"/><rect x="-110" y="-10" width="28" height="14" rx="4" fill="#2B2F33"/><circle cx="215" cy="4" r="30" fill="#2B2F33"/><circle cx="215" cy="4" r="13" fill="#9AA0A6"/><rect x="-86" y="-2" width="8" height="30" fill="#6B7075"/></g><g transform="translate(1420 1168) scale(1.18)"><rect x="-6" y="-8" width="330" height="10" rx="3" fill="#00000022"/><path d="M0 0 V-150 Q0 -170 20 -172 H250 Q300 -170 312 -120 L320 -40 V0 Z" fill="#F7F5F0" stroke="#D3CBBB" stroke-width="3"/><rect x="0" y="-62" width="320" height="14" fill="#2D6A43"/><rect x="0" y="-44" width="320" height="5" fill="#B89D6E"/><rect x="28" y="-135" width="80" height="48" rx="8" fill="#2B3A55"/><rect x="200" y="-135" width="78" height="48" rx="8" fill="#2B3A55"/><rect x="138" y="-150" width="44" height="130" rx="5" fill="#E5DFD3" stroke="#CFC6B6" stroke-width="3"/><rect x="172" y="-90" width="5" height="16" rx="2" fill="#8A8F95"/><path d="M-2 -8 L-90 -2" stroke="#2B2F33" stroke-width="9" stroke-linecap="round"/><rect x="-110" y="-10" width="28" height="14" rx="4" fill="#2B2F33"/><circle cx="215" cy="4" r="30" fill="#2B2F33"/><circle cx="215" cy="4" r="13" fill="#9AA0A6"/><rect x="-86" y="-2" width="8" height="30" fill="#6B7075"/></g><g transform="translate(1860 1186) scale(1.18)"><rect x="-6" y="-8" width="330" height="10" rx="3" fill="#00000022"/><path d="M0 0 V-150 Q0 -170 20 -172 H250 Q300 -170 312 -120 L320 -40 V0 Z" fill="#F7F5F0" stroke="#D3CBBB" stroke-width="3"/><rect x="0" y="-62" width="320" height="14" fill="#8C6D3F"/><rect x="0" y="-44" width="320" height="5" fill="#B89D6E"/><rect x="28" y="-135" width="80" height="48" rx="8" fill="#2B3A55"/><rect x="200" y="-135" width="78" height="48" rx="8" fill="#2B3A55"/><rect x="138" y="-150" width="44" height="130" rx="5" fill="#E5DFD3" stroke="#CFC6B6" stroke-width="3"/><rect x="172" y="-90" width="5" height="16" rx="2" fill="#8A8F95"/><path d="M-2 -8 L-90 -2" stroke="#2B2F33" stroke-width="9" stroke-linecap="round"/><rect x="-110" y="-10" width="28" height="14" rx="4" fill="#2B2F33"/><circle cx="215" cy="4" r="30" fill="#2B2F33"/><circle cx="215" cy="4" r="13" fill="#9AA0A6"/><rect x="-86" y="-2" width="8" height="30" fill="#6B7075"/></g><g transform="translate(1250 1390) scale(1.45)"><rect x="-6" y="-8" width="330" height="10" rx="3" fill="#00000022"/><path d="M0 0 V-150 Q0 -170 20 -172 H250 Q300 -170 312 -120 L320 -40 V0 Z" fill="#F7F5F0" stroke="#D3CBBB" stroke-width="3"/><rect x="0" y="-62" width="320" height="14" fill="#14284B"/><rect x="0" y="-44" width="320" height="5" fill="#B89D6E"/><rect x="28" y="-135" width="80" height="48" rx="8" fill="#2B3A55"/><rect x="200" y="-135" width="78" height="48" rx="8" fill="#2B3A55"/><rect x="138" y="-150" width="44" height="130" rx="5" fill="#E5DFD3" stroke="#CFC6B6" stroke-width="3"/><rect x="172" y="-90" width="5" height="16" rx="2" fill="#8A8F95"/><path d="M-2 -8 L-90 -2" stroke="#2B2F33" stroke-width="9" stroke-linecap="round"/><rect x="-110" y="-10" width="28" height="14" rx="4" fill="#2B2F33"/><circle cx="215" cy="4" r="30" fill="#2B2F33"/><circle cx="215" cy="4" r="13" fill="#9AA0A6"/><rect x="-86" y="-2" width="8" height="30" fill="#6B7075"/></g></svg>