<svg xmlns="http://www.w3.org/2000/svg" viewBox="0 0 1400 1400" width="1400" height="1400" preserveAspectRatio="xMidYMid slice"><defs><filter id="grain" x="0" y="0" width="100%" height="100%"><feTurbulence type="fractalNoise" baseFrequency=".9" numOctaves="2" stitchTiles="stitch"/><feColorMatrix values="0 0 0 0 0  0 0 0 0 0  0 0 0 0 0  0 0 0 .07 0"/><feComposite in2="SourceGraphic" operator="in"/></filter></defs><rect width="1400" height="1400" fill="#2b3a33"/><rect x="0" width="1" height="1400" fill="#000" opacity=".025"/><rect x="14" width="1" height="1400" fill="#000" opacity=".025"/><rect x="28" width="1" height="1400" fill="#000" opacity=".025"/><rect x="42" width="1" height="1400" fill="#000" opacity=".025"/><rect x="56" width="1" height="1400" fill="#000" opacity=".025"/><rect x="70" width="1" height="1400" fill="#000" opacity=".025"/><rect x="84" width="1" height="1400" fill="#000" opacity=".025"/><rect x="98" width="1" height="1400" fill="#000" opacity=".025"/><rect x="112" width="1" height="1400" fill="#000" opacity=".025"/><rect x="126" width="1" height="1400" fill="#000" opacity=".025"/><rect x="140" width="1" height="1400" fill="#000" opacity=".025"/><rect x="154" width="1" height="1400" fill="#000" opacity=".025"/><rect x="168" width="1" height="1400" fill="#000" opacity=".025"/><rect x="182" width="1" height="1400" fill="#000" opacity=".025"/><rect x="196" width="1" height="1400" fill="#000" opacity=".025"/><rect x="210" width="1" height="1400" fill="#000" opacity=".025"/><rect x="224" width="1" height="1400" fill="#000" opacity=".025"/><rect x="238" width="1" height="1400" fill="#000" opacity=".025"/><rect x="252" width="1" height="1400" fill="#000" opacity=".025"/><rect x="266" width="1" height="1400" fill="#000" opacity=".025"/><rect x="280" width="1" height="1400" fill="#000" opacity=".025"/><rect x="294" width="1" height="1400" fill="#000" opacity=".025"/><rect x="308" width="1" height="1400" fill="#000" opacity=".025"/><rect x="322" width="1" height="1400" fill="#000" opacity=".025"/><rect x="336" width="1" height="1400" fill="#000" opacity=".025"/><rect x="350" width="1" height="1400" fill="#000" opacity=".025"/><rect x="364" width="1" height="1400" fill="#000" opacity=".025"/><rect x="378" width="1" height="1400" fill="#000" opacity=".025"/><rect x="392" width="1" height="1400" fill="#000" opacity=".025"/><rect x="406" width="1" height="1400" fill="#000" opacity=".025"/><rect x="420" width="1" height="1400" fill="#000" opacity=".025"/><rect x="434" width="1" height="1400" fill="#000" opacity=".025"/><rect x="448" width="1" height="1400" fill="#000" opacity=".025"/><rect x="462" width="1" height="1400" fill="#000" opacity=".025"/><rect x="476" width="1" height="1400" fill="#000" opacity=".025"/><rect x="490" width="1" height="1400" fill="#000" opacity=".025"/><rect x="504" width="1" height="1400" fill="#000" opacity=".025"/><rect x="518" width="1" height="1400" fill="#000" opacity=".025"/><rect x="532" width="1" height="1400" fill="#000" opacity=".025"/><rect x="546" width="1" height="1400" fill="#000" opacity=".025"/><rect x="560" width="1" height="1400" fill="#000" opacity=".025"/><rect x="574" width="1" height="1400" fill="#000" opacity=".025"/><rect x="588" width="1" height="1400" fill="#000" opacity=".025"/><rect x="602" width="1" height="1400" fill="#000" opacity=".025"/><rect x="616" width="1" height="1400" fill="#000" opacity=".025"/><rect x="630" width="1" height="1400" fill="#000" opacity=".025"/><rect x="644" width="1" height="1400" fill="#000" opacity=".025"/><rect x="658" width="1" height="1400" fill="#000" opacity=".025"/><rect x="672" width="1" height="1400" fill="#000" opacity=".025"/><rect x="686" width="1" height="1400" fill="#000" opacity=".025"/><rect x="700" width="1" height="1400" fill="#000" opacity=".025"/><rect x="714" width="1" height="1400" fill="#000" opacity=".025"/><rect x="728" width="1" height="1400" fill="#000" opacity=".025"/><rect x="742" width="1" height="1400" fill="#000" opacity=".025"/><rect x="756" width="1" height="1400" fill="#000" opacity=".025"/><rect x="770" width="1" height="1400" fill="#000" opacity=".025"/><rect x="784" width="1" height="1400" fill="#000" opacity=".025"/><rect x="798" width="1" height="1400" fill="#000" opacity=".025"/><rect x="812" width="1" height="1400" fill="#000" opacity=".025"/><rect x="826" width="1" height="1400" fill="#000" opacity=".025"/><rect x="840" width="1" height="1400" fill="#000" opacity=".025"/><rect x="854" width="1" height="1400" fill="#000" opacity=".025"/><rect x="868" width="1" height="1400" fill="#000" opacity=".025"/><rect x="882" width="1" height="1400" fill="#000" opacity=".025"/><rect x="896" width="1" height="1400" fill="#000" opacity=".025"/><rect x="910" width="1" height="1400" fill="#000" opacity=".025"/><rect x="924" width="1" height="1400" fill="#000" opacity=".025"/><rect x="938" width="1" height="1400" fill="#000" opacity=".025"/><rect x="952" width="1" height="1400" fill="#000" opacity=".025"/><rect x="966" width="1" height="1400" fill="#000" opacity=".025"/><rect x="980" width="1" height="1400" fill="#000" opacity=".025"/><rect x="994" width="1" height="1400" fill="#000" opacity=".025"/><rect x="1008" width="1" height="1400" fill="#000" opacity=".025"/><rect x="1022" width="1" height="1400" fill="#000" opacity=".025"/><rect x="1036" width="1" height="1400" fill="#000" opacity=".025"/><rect x="1050" width="1" height="1400" fill="#000" opacity=".025"/><rect x="1064" width="1" height="1400" fill="#000" opacity=".025"/><rect x="1078" width="1" height="1400" fill="#000" opacity=".025"/><rect x="1092" width="1" height="1400" fill="#000" opacity=".025"/><rect x="1106" width="1" height="1400" fill="#000" opacity=".025"/><rect x="1120" width="1" height="1400" fill="#000" opacity=".025"/><rect x="1134" width="1" height="1400" fill="#000" opacity=".025"/><rect x="1148" width="1" height="1400" fill="#000" opacity=".025"/><rect x="1162" width="1" height="1400" fill="#000" opacity=".025"/><rect x="1176" width="1" height="1400" fill="#000" opacity=".025"/><rect x="1190" width="1" height="1400" fill="#000" opacity=".025"/><rect x="1204" width="1" height="1400" fill="#000" opacity=".025"/><rect x="1218" width="1" height="1400" fill="#000" opacity=".025"/><rect x="1232" width="1" height="1400" fill="#000" opacity=".025"/><rect x="1246" width="1" height="1400" fill="#000" opacity=".025"/><rect x="1260" width="1" height="1400" fill="#000" opacity=".025"/><rect x="1274" width="1" height="1400" fill="#000" opacity=".025"/><rect x="1288" width="1" height="1400" fill="#000" opacity=".025"/><rect x="1302" width="1" height="1400" fill="#000" opacity=".025"/><rect x="1316" width="1" height="1400" fill="#000" opacity=".025"/><rect x="1330" width="1" height="1400" fill="#000" opacity=".025"/><rect x="1344" width="1" height="1400" fill="#000" opacity=".025"/><rect x="1358" width="1" height="1400" fill="#000" opacity=".025"/><rect x="1372" width="1" height="1400" fill="#000" opacity=".025"/><rect x="1386" width="1" height="1400" fill="#000" opacity=".025"/><ellipse cx="718" cy="754" rx="514" ry="504" fill="#000" opacity=".08"/><circle cx="700" cy="728" r="504" fill="#f7f3ec"/><circle cx="700" cy="728" r="363" fill="#efe8dc"/><circle cx="727" cy="721" r="52" fill="#6e2f23" opacity=".92"/><circle cx="710" cy="750" r="96" fill="#e2c38f" opacity=".92"/><circle cx="704" cy="713" r="69" fill="#8a4a33" opacity=".92"/><circle cx="649" cy="838" r="116" fill="#6e2f23" opacity=".92"/><circle cx="697" cy="719" r="113" fill="#e2c38f" opacity=".92"/><circle cx="686" cy="764" r="110" fill="#8a4a33" opacity=".92"/><circle cx="660" cy="611" r="69" fill="#6e2f23" opacity=".92"/><circle cx="640" cy="874" r="118" fill="#c77b4a" opacity=".92"/><circle cx="690" cy="782" r="99" fill="#6e2f23" opacity=".92"/><ellipse cx="840" cy="773" rx="25" ry="11" transform="rotate(6 840 773)" fill="#4f6b3a" opacity=".85"/><ellipse cx="825" cy="664" rx="25" ry="11" transform="rotate(93 825 664)" fill="#4f6b3a" opacity=".85"/><ellipse cx="546" cy="827" rx="25" ry="11" transform="rotate(165 546 827)" fill="#4f6b3a" opacity=".85"/><ellipse cx="664" cy="825" rx="25" ry="11" transform="rotate(105 664 825)" fill="#4f6b3a" opacity=".85"/><ellipse cx="652" cy="886" rx="25" ry="11" transform="rotate(98 652 886)" fill="#4f6b3a" opacity=".85"/><ellipse cx="530" cy="804" rx="25" ry="11" transform="rotate(95 530 804)" fill="#4f6b3a" opacity=".85"/><ellipse cx="935" cy="873" rx="25" ry="11" transform="rotate(64 935 873)" fill="#4f6b3a" opacity=".85"/><ellipse cx="599" cy="775" rx="25" ry="11" transform="rotate(167 599 775)" fill="#4f6b3a" opacity=".85"/><ellipse cx="835" cy="686" rx="25" ry="11" transform="rotate(72 835 686)" fill="#4f6b3a" opacity=".85"/><ellipse cx="904" cy="869" rx="25" ry="11" transform="rotate(31 904 869)" fill="#4f6b3a" opacity=".85"/><ellipse cx="607" cy="700" rx="25" ry="11" transform="rotate(59 607 700)" fill="#4f6b3a" opacity=".85"/><ellipse cx="667" cy="769" rx="25" ry="11" transform="rotate(7 667 769)" fill="#4f6b3a" opacity=".85"/><ellipse cx="485" cy="680" rx="25" ry="11" transform="rotate(116 485 680)" fill="#4f6b3a" opacity=".85"/><ellipse cx="758" cy="911" rx="25" ry="11" transform="rotate(9 758 911)" fill="#4f6b3a" opacity=".85"/><ellipse cx="506" cy="850" rx="25" ry="11" transform="rotate(166 506 850)" fill="#4f6b3a" opacity=".85"/><ellipse cx="473" cy="786" rx="25" ry="11" transform="rotate(90 473 786)" fill="#4f6b3a" opacity=".85"/><ellipse cx="540" cy="704" rx="25" ry="11" transform="rotate(178 540 704)" fill="#4f6b3a" opacity=".85"/><ellipse cx="694" cy="597" rx="25" ry="11" transform="rotate(131 694 597)" fill="#4f6b3a" opacity=".85"/><ellipse cx="639" cy="651" rx="25" ry="11" transform="rotate(141 639 651)" fill="#4f6b3a" opacity=".85"/><ellipse cx="771" cy="575" rx="25" ry="11" transform="rotate(170 771 575)" fill="#4f6b3a" opacity=".85"/><ellipse cx="838" cy="744" rx="25" ry="11" transform="rotate(114 838 744)" fill="#4f6b3a" opacity=".85"/><ellipse cx="674" cy="768" rx="25" ry="11" transform="rotate(125 674 768)" fill="#4f6b3a" opacity=".85"/><ellipse cx="632" cy="758" rx="25" ry="11" transform="rotate(8 632 758)" fill="#4f6b3a" opacity=".85"/><ellipse cx="796" cy="708" rx="25" ry="11" transform="rotate(21 796 708)" fill="#4f6b3a" opacity=".85"/><ellipse cx="715" cy="797" rx="25" ry="11" transform="rotate(156 715 797)" fill="#4f6b3a" opacity=".85"/><ellipse cx="732" cy="797" rx="25" ry="11" transform="rotate(18 732 797)" fill="#4f6b3a" opacity=".85"/><rect x="1330" y="274" width="35" height="907" rx="6" fill="#b9a98f"/><rect x="35" y="274" width="35" height="907" rx="6" fill="#b9a98f"/><g opacity=".55" font-family="Helvetica, Arial, sans-serif" font-size="16" letter-spacing="2" fill="#18271F"><text x="1360" y="1364" text-anchor="end">FOTO VERVANGEN · DINER</text></g><rect width="1400" height="1400" filter="url(#grain)"/></svg>