<svg xmlns="http://www.w3.org/2000/svg" viewBox="0 0 1920 1100" width="1920" height="1100" preserveAspectRatio="xMidYMid slice" role="img"><title>Het lange strand en de hoge duinen van Valkenisse</title><defs></defs><linearGradient id="sky" x1="0" y1="0" x2="0" y2="1"><stop offset="0" stop-color="#DCE7E6"/><stop offset=".6" stop-color="#EEF1EA"/><stop offset="1" stop-color="#F7F1E6"/></linearGradient> <rect width="1920" height="520" fill="url(#sky)"/><radialGradient id="glow"><stop offset="0" stop-color="#FFF6E0" stop-opacity=".9"/><stop offset="1" stop-color="#FFF6E0" stop-opacity="0"/></radialGradient> <circle cx="1500" cy="200" r="144" fill="url(#glow)"/><circle cx="1500" cy="200" r="36" fill="#FFF6E0"/><linearGradient id="sea" x1="0" y1="0" x2="0" y2="1"><stop offset="0" stop-color="#2F6F7E"/><stop offset="1" stop-color="#8FB9BE"/></linearGradient> <rect y="520" width="1920" height="180" fill="url(#sea)"/><rect x="0" y="526" width="60" height="2" rx="1" fill="#fff" opacity="0.18"/><rect x="397" y="539" width="97" height="2" rx="1" fill="#fff" opacity="0.24"/><rect x="794" y="552" width="134" height="2" rx="1" fill="#fff" opacity="0.30"/><rect x="1191" y="565" width="171" height="2" rx="1" fill="#fff" opacity="0.18"/><rect x="1588" y="577" width="208" height="2" rx="1" fill="#fff" opacity="0.24"/><rect x="65" y="590" width="65" height="2" rx="1" fill="#fff" opacity="0.30"/><rect x="462" y="603" width="102" height="2" rx="1" fill="#fff" opacity="0.18"/><rect x="859" y="616" width="139" height="2" rx="1" fill="#fff" opacity="0.24"/><rect x="1256" y="629" width="176" height="2" rx="1" fill="#fff" opacity="0.30"/><rect x="1653" y="642" width="213" height="2" rx="1" fill="#fff" opacity="0.18"/><rect x="130" y="655" width="70" height="2" rx="1" fill="#fff" opacity="0.24"/><rect x="527" y="667" width="107" height="2" rx="1" fill="#fff" opacity="0.30"/><rect x="924" y="680" width="144" height="2" rx="1" fill="#fff" opacity="0.18"/><rect x="1321" y="693" width="181" height="2" rx="1" fill="#fff" opacity="0.24"/><g transform="translate(1300 514) scale(0.8)" opacity="0.6"> <rect x="34" y="-22" width="16" height="8.5" fill="#B5553F"/><rect x="34" y="-31" width="16" height="8.5" fill="#C99A4B"/><rect x="51" y="-22" width="16" height="8.5" fill="#2F6F7E"/><rect x="51" y="-31" width="16" height="8.5" fill="#6F7D45"/><rect x="68" y="-22" width="16" height="8.5" fill="#C99A4B"/><rect x="68" y="-31" width="16" height="8.5" fill="#8B7B69"/><rect x="85" y="-22" width="16" height="8.5" fill="#6F7D45"/><rect x="85" y="-31" width="16" height="8.5" fill="#B5553F"/><rect x="102" y="-22" width="16" height="8.5" fill="#8B7B69"/><rect x="102" y="-31" width="16" height="8.5" fill="#2F6F7E"/><rect x="119" y="-22" width="16" height="8.5" fill="#B5553F"/><rect x="119" y="-31" width="16" height="8.5" fill="#C99A4B"/><rect x="136" y="-22" width="16" height="8.5" fill="#2F6F7E"/><rect x="136" y="-31" width="16" height="8.5" fill="#6F7D45"/><rect x="153" y="-22" width="16" height="8.5" fill="#C99A4B"/><rect x="153" y="-31" width="16" height="8.5" fill="#8B7B69"/><rect x="170" y="-22" width="16" height="8.5" fill="#6F7D45"/><rect x="170" y="-31" width="16" height="8.5" fill="#B5553F"/> <rect x="194" y="-44" width="18" height="36" fill="#FCFAF5"/><rect x="190" y="-48" width="26" height="6" fill="#34475A"/><rect x="200" y="-60" width="4" height="12" fill="#34475A"/> <path d="M0 -6 H240 L228 10 H14 Z" fill="#34475A"/><rect x="10" y="-6" width="226" height="3" fill="#B5553F"/> </g><linearGradient id="beach" x1="0" y1="0" x2="0" y2="1"><stop offset="0" stop-color="#D9C9A8"/><stop offset=".12" stop-color="#EFE4CF"/><stop offset="1" stop-color="#E6D2AE"/></linearGradient> <path d="M0 700 Q 576 692 1152 704 T 1920 700 V 1100 H 0 Z" fill="url(#beach)"/> <path d="M0 703 Q 576 695 1152 707 T 1920 703" stroke="#fff" stroke-width="3" fill="none" opacity=".7"/><path d="M1920 380 C 1632 340 1344 390 960 500 L 960 1100 H 1920 Z" fill="#D5C29A"/><path d="M1920 380 C 1632 340 1344 390 960 500 L 960 1100 H 1920 Z" fill="#C9B386" opacity=".35" transform="translate(0 30)"/><path d="M1920 420 q -8 -20 -16 -28" stroke="#8E9A63" stroke-width="2.2" fill="none" stroke-linecap="round"/><path d="M1907 451 q -4 -20 -8 -34" stroke="#6F7D45" stroke-width="2.2" fill="none" stroke-linecap="round"/><path d="M1894 482 q 0 -20 0 -40" stroke="#6F7D45" stroke-width="2.2" fill="none" stroke-linecap="round"/><path d="M1881 423 q 4 -20 8 -46" stroke="#8E9A63" stroke-width="2.2" fill="none" stroke-linecap="round"/><path d="M1868 454 q 8 -20 16 -28" stroke="#6F7D45" stroke-width="2.2" fill="none" stroke-linecap="round"/><path d="M1855 485 q -8 -20 -16 -34" stroke="#6F7D45" stroke-width="2.2" fill="none" stroke-linecap="round"/><path d="M1842 426 q -4 -20 -8 -40" stroke="#8E9A63" stroke-width="2.2" fill="none" stroke-linecap="round"/><path d="M1829 457 q 0 -20 0 -46" stroke="#6F7D45" stroke-width="2.2" fill="none" stroke-linecap="round"/><path d="M1816 488 q 4 -20 8 -28" stroke="#6F7D45" stroke-width="2.2" fill="none" stroke-linecap="round"/><path d="M1803 429 q 8 -20 16 -34" stroke="#8E9A63" stroke-width="2.2" fill="none" stroke-linecap="round"/><path d="M1790 460 q -8 -20 -16 -40" stroke="#6F7D45" stroke-width="2.2" fill="none" stroke-linecap="round"/><path d="M1777 491 q -4 -20 -8 -46" stroke="#6F7D45" stroke-width="2.2" fill="none" stroke-linecap="round"/><path d="M1764 432 q 0 -20 0 -28" stroke="#8E9A63" stroke-width="2.2" fill="none" stroke-linecap="round"/><path d="M1751 463 q 4 -20 8 -34" stroke="#6F7D45" stroke-width="2.2" fill="none" stroke-linecap="round"/><path d="M1738 494 q 8 -20 16 -40" stroke="#6F7D45" stroke-width="2.2" fill="none" stroke-linecap="round"/><path d="M1725 435 q -8 -20 -16 -46" stroke="#8E9A63" stroke-width="2.2" fill="none" stroke-linecap="round"/><path d="M1712 466 q -4 -20 -8 -28" stroke="#6F7D45" stroke-width="2.2" fill="none" stroke-linecap="round"/><path d="M1699 497 q 0 -20 0 -34" stroke="#6F7D45" stroke-width="2.2" fill="none" stroke-linecap="round"/><path d="M1686 438 q 4 -20 8 -40" stroke="#8E9A63" stroke-width="2.2" fill="none" stroke-linecap="round"/><path d="M1673 469 q 8 -20 16 -46" stroke="#6F7D45" stroke-width="2.2" fill="none" stroke-linecap="round"/><path d="M1660 500 q -8 -20 -16 -28" stroke="#6F7D45" stroke-width="2.2" fill="none" stroke-linecap="round"/><path d="M1647 441 q -4 -20 -8 -34" stroke="#8E9A63" stroke-width="2.2" fill="none" stroke-linecap="round"/><path d="M1634 472 q 0 -20 0 -40" stroke="#6F7D45" stroke-width="2.2" fill="none" stroke-linecap="round"/><path d="M1621 503 q 4 -20 8 -46" stroke="#6F7D45" stroke-width="2.2" fill="none" stroke-linecap="round"/><path d="M1608 444 q 8 -20 16 -28" stroke="#8E9A63" stroke-width="2.2" fill="none" stroke-linecap="round"/><path d="M1595 475 q -8 -20 -16 -34" stroke="#6F7D45" stroke-width="2.2" fill="none" stroke-linecap="round"/><path d="M1582 506 q -4 -20 -8 -40" stroke="#6F7D45" stroke-width="2.2" fill="none" stroke-linecap="round"/><path d="M1569 447 q 0 -20 0 -46" stroke="#8E9A63" stroke-width="2.2" fill="none" stroke-linecap="round"/><path d="M1556 478 q 4 -20 8 -28" stroke="#6F7D45" stroke-width="2.2" fill="none" stroke-linecap="round"/><path d="M1543 509 q 8 -20 16 -34" stroke="#6F7D45" stroke-width="2.2" fill="none" stroke-linecap="round"/><path d="M1530 450 q -8 -20 -16 -40" stroke="#8E9A63" stroke-width="2.2" fill="none" stroke-linecap="round"/><path d="M1517 481 q -4 -20 -8 -46" stroke="#6F7D45" stroke-width="2.2" fill="none" stroke-linecap="round"/><path d="M1504 422 q 0 -20 0 -28" stroke="#6F7D45" stroke-width="2.2" fill="none" stroke-linecap="round"/><path d="M1491 453 q 4 -20 8 -34" stroke="#8E9A63" stroke-width="2.2" fill="none" stroke-linecap="round"/><path d="M1478 484 q 8 -20 16 -40" stroke="#6F7D45" stroke-width="2.2" fill="none" stroke-linecap="round"/><path d="M1465 425 q -8 -20 -16 -46" stroke="#6F7D45" stroke-width="2.2" fill="none" stroke-linecap="round"/><path d="M1452 456 q -4 -20 -8 -28" stroke="#8E9A63" stroke-width="2.2" fill="none" stroke-linecap="round"/><path d="M1439 487 q 0 -20 0 -34" stroke="#6F7D45" stroke-width="2.2" fill="none" stroke-linecap="round"/><path d="M1426 428 q 4 -20 8 -40" stroke="#6F7D45" stroke-width="2.2" fill="none" stroke-linecap="round"/><path d="M1413 459 q 8 -20 16 -46" stroke="#8E9A63" stroke-width="2.2" fill="none" stroke-linecap="round"/><path d="M1400 490 q -8 -20 -16 -28" stroke="#6F7D45" stroke-width="2.2" fill="none" stroke-linecap="round"/><path d="M1387 431 q -4 -20 -8 -34" stroke="#6F7D45" stroke-width="2.2" fill="none" stroke-linecap="round"/><path d="M1374 462 q 0 -20 0 -40" stroke="#8E9A63" stroke-width="2.2" fill="none" stroke-linecap="round"/><path d="M1361 493 q 4 -20 8 -46" stroke="#6F7D45" stroke-width="2.2" fill="none" stroke-linecap="round"/><path d="M1348 434 q 8 -20 16 -28" stroke="#6F7D45" stroke-width="2.2" fill="none" stroke-linecap="round"/><path d="M1335 465 q -8 -20 -16 -34" stroke="#8E9A63" stroke-width="2.2" fill="none" stroke-linecap="round"/><path d="M1322 496 q -4 -20 -8 -40" stroke="#6F7D45" stroke-width="2.2" fill="none" stroke-linecap="round"/><path d="M1309 437 q 0 -20 0 -46" stroke="#6F7D45" stroke-width="2.2" fill="none" stroke-linecap="round"/><path d="M1296 468 q 4 -20 8 -28" stroke="#8E9A63" stroke-width="2.2" fill="none" stroke-linecap="round"/><path d="M1283 499 q 8 -20 16 -34" stroke="#6F7D45" stroke-width="2.2" fill="none" stroke-linecap="round"/><path d="M1270 440 q -8 -20 -16 -40" stroke="#6F7D45" stroke-width="2.2" fill="none" stroke-linecap="round"/><path d="M1257 471 q -4 -20 -8 -46" stroke="#8E9A63" stroke-width="2.2" fill="none" stroke-linecap="round"/><path d="M1244 502 q 0 -20 0 -28" stroke="#6F7D45" stroke-width="2.2" fill="none" stroke-linecap="round"/><path d="M1231 443 q 4 -20 8 -34" stroke="#6F7D45" stroke-width="2.2" fill="none" stroke-linecap="round"/><path d="M1218 474 q 8 -20 16 -40" stroke="#8E9A63" stroke-width="2.2" fill="none" stroke-linecap="round"/><path d="M1205 505 q -8 -20 -16 -46" stroke="#6F7D45" stroke-width="2.2" fill="none" stroke-linecap="round"/><path d="M1192 446 q -4 -20 -8 -28" stroke="#6F7D45" stroke-width="2.2" fill="none" stroke-linecap="round"/><path d="M1179 477 q 0 -20 0 -34" stroke="#8E9A63" stroke-width="2.2" fill="none" stroke-linecap="round"/><path d="M1166 508 q 4 -20 8 -40" stroke="#6F7D45" stroke-width="2.2" fill="none" stroke-linecap="round"/><path d="M1153 449 q 8 -20 16 -46" stroke="#6F7D45" stroke-width="2.2" fill="none" stroke-linecap="round"/><path d="M1140 480 q -8 -20 -16 -28" stroke="#8E9A63" stroke-width="2.2" fill="none" stroke-linecap="round"/><path d="M1127 421 q -4 -20 -8 -34" stroke="#6F7D45" stroke-width="2.2" fill="none" stroke-linecap="round"/><path d="M1114 452 q 0 -20 0 -40" stroke="#6F7D45" stroke-width="2.2" fill="none" stroke-linecap="round"/><path d="M1101 483 q 4 -20 8 -46" stroke="#8E9A63" stroke-width="2.2" fill="none" stroke-linecap="round"/><path d="M1088 424 q 8 -20 16 -28" stroke="#6F7D45" stroke-width="2.2" fill="none" stroke-linecap="round"/><path d="M1075 455 q -8 -20 -16 -34" stroke="#6F7D45" stroke-width="2.2" fill="none" stroke-linecap="round"/><path d="M1062 486 q -4 -20 -8 -40" stroke="#8E9A63" stroke-width="2.2" fill="none" stroke-linecap="round"/><path d="M1049 427 q 0 -20 0 -46" stroke="#6F7D45" stroke-width="2.2" fill="none" stroke-linecap="round"/><path d="M1036 458 q 4 -20 8 -28" stroke="#6F7D45" stroke-width="2.2" fill="none" stroke-linecap="round"/><path d="M1023 489 q 8 -20 16 -34" stroke="#8E9A63" stroke-width="2.2" fill="none" stroke-linecap="round"/><g transform="translate(600 900) scale(0.9)" fill="#1C2F41" opacity=".85"> <circle cx="0" cy="-92" r="12"/><path d="M-14 -78 h28 l6 40 h-10 l-2 38 h-16 l-2 -38 h-10 z"/> <circle cx="42" cy="-80" r="10"/><path d="M30 -68 h24 l5 34 h-8 l-2 34 h-14 l-2 -34 h-8 z"/> <circle cx="74" cy="-56" r="8"/><path d="M65 -46 h18 l4 24 h-6 l-1 22 h-12 l-1 -22 h-6 z"/> </g><g font-family="Figtree, Arial, sans-serif" font-size="17" font-weight="600"> <rect x="1240" y="198" width="660" height="36" rx="17.85" fill="#1C2F41" opacity=".6"/> <text x="1257" y="222" fill="#FCFAF5">FOTO AANLEVEREN · Het lange strand en de hoge duinen van Valkenisse</text></g></svg>