<svg xmlns="http://www.w3.org/2000/svg" viewBox="0 0 1200 1200" width="1200" height="1200" preserveAspectRatio="xMidYMid slice" role="img"><title>Windschermen</title><defs></defs><linearGradient id="sky" x1="0" y1="0" x2="0" y2="1"><stop offset="0" stop-color="#DCE7E6"/><stop offset=".6" stop-color="#EEF1EA"/><stop offset="1" stop-color="#F7F1E6"/></linearGradient> <rect width="1200" height="480" fill="url(#sky)"/><linearGradient id="sea" x1="0" y1="0" x2="0" y2="1"><stop offset="0" stop-color="#2F6F7E"/><stop offset="1" stop-color="#8FB9BE"/></linearGradient> <rect y="480" width="1200" height="140" fill="url(#sea)"/><rect x="0" y="486" width="60" height="2" rx="1" fill="#fff" opacity="0.18"/><rect x="397" y="496" width="97" height="2" rx="1" fill="#fff" opacity="0.24"/><rect x="794" y="506" width="134" height="2" rx="1" fill="#fff" opacity="0.30"/><rect x="1191" y="516" width="171" height="2" rx="1" fill="#fff" opacity="0.18"/><rect x="388" y="526" width="208" height="2" rx="1" fill="#fff" opacity="0.24"/><rect x="785" y="536" width="65" height="2" rx="1" fill="#fff" opacity="0.30"/><rect x="1182" y="546" width="102" height="2" rx="1" fill="#fff" opacity="0.18"/><rect x="379" y="556" width="139" height="2" rx="1" fill="#fff" opacity="0.24"/><rect x="776" y="566" width="176" height="2" rx="1" fill="#fff" opacity="0.30"/><rect x="1173" y="576" width="213" height="2" rx="1" fill="#fff" opacity="0.18"/><rect x="370" y="586" width="70" height="2" rx="1" fill="#fff" opacity="0.24"/><rect x="767" y="596" width="107" height="2" rx="1" fill="#fff" opacity="0.30"/><rect x="1164" y="606" width="144" height="2" rx="1" fill="#fff" opacity="0.18"/><rect x="361" y="616" width="181" height="2" rx="1" fill="#fff" opacity="0.24"/><linearGradient id="beach" x1="0" y1="0" x2="0" y2="1"><stop offset="0" stop-color="#D9C9A8"/><stop offset=".12" stop-color="#EFE4CF"/><stop offset="1" stop-color="#E6D2AE"/></linearGradient> <path d="M0 620 Q 360 612 720 624 T 1200 620 V 1200 H 0 Z" fill="url(#beach)"/> <path d="M0 623 Q 360 615 720 627 T 1200 623" stroke="#fff" stroke-width="3" fill="none" opacity=".7"/><g transform="translate(140 960) scale(3.2) skewY(-3)"><rect x="0" y="-70" width="34" height="62" fill="#2F6F7E"/><rect x="34" y="-70" width="34" height="62" fill="#FCFAF5"/><rect x="68" y="-70" width="34" height="62" fill="#2F6F7E"/><rect x="102" y="-70" width="34" height="62" fill="#FCFAF5"/><rect x="136" y="-70" width="34" height="62" fill="#2F6F7E"/><rect x="170" y="-70" width="34" height="62" fill="#FCFAF5"/><rect x="204" y="-70" width="34" height="62" fill="#2F6F7E"/><rect x="-2" y="-78" width="4" height="82" fill="#6E604F"/><rect x="32" y="-78" width="4" height="82" fill="#6E604F"/><rect x="66" y="-78" width="4" height="82" fill="#6E604F"/><rect x="100" y="-78" width="4" height="82" fill="#6E604F"/><rect x="134" y="-78" width="4" height="82" fill="#6E604F"/><rect x="168" y="-78" width="4" height="82" fill="#6E604F"/><rect x="202" y="-78" width="4" height="82" fill="#6E604F"/><rect x="236" y="-78" width="4" height="82" fill="#6E604F"/></g><g transform="translate(220 1080) scale(0.9)"><g transform="translate(0 0)"> <path d="M0 0 L22 -46 L30 -46 L8 0 Z" fill="#6E604F"/><path d="M40 0 L22 -46" stroke="#6E604F" stroke-width="4"/> <path d="M8 -6 L26 -44 L46 -38 L36 -4 Z" fill="#2F6F7E"/> </g><g transform="translate(130 0)"> <path d="M0 0 L22 -46 L30 -46 L8 0 Z" fill="#6E604F"/><path d="M40 0 L22 -46" stroke="#6E604F" stroke-width="4"/> <path d="M8 -6 L26 -44 L46 -38 L36 -4 Z" fill="#FCFAF5"/> <rect x="58" y="-110" width="3" height="110" fill="#6E604F"/><path d="M0 -104 Q 60 -150 120 -104 Z" fill="#FCFAF5"/> </g><g transform="translate(260 0)"> <path d="M0 0 L22 -46 L30 -46 L8 0 Z" fill="#6E604F"/><path d="M40 0 L22 -46" stroke="#6E604F" stroke-width="4"/> <path d="M8 -6 L26 -44 L46 -38 L36 -4 Z" fill="#E9A55C"/> </g></g><g font-family="Figtree, Arial, sans-serif" font-size="13" font-weight="600"> <rect x="944" y="216" width="241" height="27" rx="13.65" fill="#1C2F41" opacity=".6"/> <text x="957" y="234" fill="#FCFAF5">FOTO AANLEVEREN · Windschermen</text></g></svg>