<svg xmlns="http://www.w3.org/2000/svg" viewBox="0 0 1600 1000" width="1600" height="1000" preserveAspectRatio="xMidYMid slice" role="img"><title>Gerechten en drankjes op het terras, zee op de achtergrond</title><defs></defs><linearGradient id="sky" x1="0" y1="0" x2="0" y2="1"><stop offset="0" stop-color="#F3C98B"/><stop offset=".6" stop-color="#F6DDB4"/><stop offset="1" stop-color="#F8E9CF"/></linearGradient> <rect width="1600" height="420" fill="url(#sky)"/><radialGradient id="glow"><stop offset="0" stop-color="#FFE3B0" stop-opacity=".9"/><stop offset="1" stop-color="#FFE3B0" stop-opacity="0"/></radialGradient> <circle cx="1200" cy="330" r="144" fill="url(#glow)"/><circle cx="1200" cy="330" r="36" fill="#FFE3B0"/><linearGradient id="sea" x1="0" y1="0" x2="0" y2="1"><stop offset="0" stop-color="#4F8792"/><stop offset="1" stop-color="#8FB9BE"/></linearGradient> <rect y="420" width="1600" height="140" fill="url(#sea)"/><rect x="0" y="426" width="60" height="2" rx="1" fill="#fff" opacity="0.18"/><rect x="397" y="436" width="97" height="2" rx="1" fill="#fff" opacity="0.24"/><rect x="794" y="446" width="134" height="2" rx="1" fill="#fff" opacity="0.30"/><rect x="1191" y="456" width="171" height="2" rx="1" fill="#fff" opacity="0.18"/><rect x="1588" y="466" width="208" height="2" rx="1" fill="#fff" opacity="0.24"/><rect x="385" y="476" width="65" height="2" rx="1" fill="#fff" opacity="0.30"/><rect x="782" y="486" width="102" height="2" rx="1" fill="#fff" opacity="0.18"/><rect x="1179" y="496" width="139" height="2" rx="1" fill="#fff" opacity="0.24"/><rect x="1576" y="506" width="176" height="2" rx="1" fill="#fff" opacity="0.30"/><rect x="373" y="516" width="213" height="2" rx="1" fill="#fff" opacity="0.18"/><rect x="770" y="526" width="70" height="2" rx="1" fill="#fff" opacity="0.24"/><rect x="1167" y="536" width="107" height="2" rx="1" fill="#fff" opacity="0.30"/><rect x="1564" y="546" width="144" height="2" rx="1" fill="#fff" opacity="0.18"/><rect x="361" y="556" width="181" height="2" rx="1" fill="#fff" opacity="0.24"/><g transform="translate(260 414) scale(0.9)" opacity="0.7"> <rect x="34" y="-22" width="16" height="8.5" fill="#B5553F"/><rect x="34" y="-31" width="16" height="8.5" fill="#C99A4B"/><rect x="51" y="-22" width="16" height="8.5" fill="#2F6F7E"/><rect x="51" y="-31" width="16" height="8.5" fill="#6F7D45"/><rect x="68" y="-22" width="16" height="8.5" fill="#C99A4B"/><rect x="68" y="-31" width="16" height="8.5" fill="#8B7B69"/><rect x="85" y="-22" width="16" height="8.5" fill="#6F7D45"/><rect x="85" y="-31" width="16" height="8.5" fill="#B5553F"/><rect x="102" y="-22" width="16" height="8.5" fill="#8B7B69"/><rect x="102" y="-31" width="16" height="8.5" fill="#2F6F7E"/><rect x="119" y="-22" width="16" height="8.5" fill="#B5553F"/><rect x="119" y="-31" width="16" height="8.5" fill="#C99A4B"/><rect x="136" y="-22" width="16" height="8.5" fill="#2F6F7E"/><rect x="136" y="-31" width="16" height="8.5" fill="#6F7D45"/><rect x="153" y="-22" width="16" height="8.5" fill="#C99A4B"/><rect x="153" y="-31" width="16" height="8.5" fill="#8B7B69"/><rect x="170" y="-22" width="16" height="8.5" fill="#6F7D45"/><rect x="170" y="-31" width="16" height="8.5" fill="#B5553F"/> <rect x="194" y="-44" width="18" height="36" fill="#FCFAF5"/><rect x="190" y="-48" width="26" height="6" fill="#34475A"/><rect x="200" y="-60" width="4" height="12" fill="#34475A"/> <path d="M0 -6 H240 L228 10 H14 Z" fill="#34475A"/><rect x="10" y="-6" width="226" height="3" fill="#B5553F"/> </g><linearGradient id="beach" x1="0" y1="0" x2="0" y2="1"><stop offset="0" stop-color="#D9C9A8"/><stop offset=".12" stop-color="#EBD3AE"/><stop offset="1" stop-color="#E6D2AE"/></linearGradient> <path d="M0 560 Q 480 552 960 564 T 1600 560 V 1000 H 0 Z" fill="url(#beach)"/> <path d="M0 563 Q 480 555 960 567 T 1600 563" stroke="#fff" stroke-width="3" fill="none" opacity=".7"/><linearGradient id="table" x1="0" y1="0" x2="0" y2="1"><stop offset="0" stop-color="#B7A68C"/><stop offset="1" stop-color="#8B7B69"/></linearGradient> <path d="M0 640 L1600 620 V 1000 H 0 Z" fill="url(#table)"/> <path d="M0 660 L1600 640" stroke="#6E604F" stroke-width="1.5" opacity=".35"/><path d="M0 698 L1600 678" stroke="#6E604F" stroke-width="1.5" opacity=".35"/><path d="M0 736 L1600 716" stroke="#6E604F" stroke-width="1.5" opacity=".35"/><path d="M0 774 L1600 754" stroke="#6E604F" stroke-width="1.5" opacity=".35"/><path d="M0 812 L1600 792" stroke="#6E604F" stroke-width="1.5" opacity=".35"/><path d="M0 850 L1600 830" stroke="#6E604F" stroke-width="1.5" opacity=".35"/><path d="M0 888 L1600 868" stroke="#6E604F" stroke-width="1.5" opacity=".35"/><path d="M0 926 L1600 906" stroke="#6E604F" stroke-width="1.5" opacity=".35"/> <g transform="translate(927.9999999999999 670)"> <path d="M0 -150 L70 -150 L62 0 L8 0 Z" fill="#F2C36B" opacity=".92"/><path d="M0 -150 L70 -150 L68 -120 L2 -120 Z" fill="#fff" opacity=".9"/> <circle cx="60" cy="-155" r="16" fill="#F0DA73"/><rect x="52" y="-200" width="4" height="70" fill="#fff" transform="rotate(12 54 -165)"/> </g> <g transform="translate(1120 676)"> <path d="M0 -120 L55 -120 L50 0 L5 0 Z" fill="#E7F0EE" opacity=".8"/><path d="M4 -80 L51 -80 L50 0 L5 0 Z" fill="#CFE3E0" opacity=".9"/> </g><g transform="translate(480 710)"> <ellipse cx="0" cy="0" rx="190" ry="60" fill="#fff"/><ellipse cx="0" cy="0" rx="150" ry="44" fill="#F7F4EC"/> <ellipse cx="-40" cy="-6" rx="70" ry="22" fill="#E3B26A"/><ellipse cx="45" cy="-2" rx="55" ry="20" fill="#9DB26A"/><circle cx="20" cy="-18" r="12" fill="#D9573F"/><circle cx="-5" cy="-20" r="9" fill="#F2E3B5"/> </g> <g transform="translate(160 680)"><ellipse cx="0" cy="0" rx="80" ry="26" fill="#fff"/><ellipse cx="0" cy="-4" rx="50" ry="14" fill="#E9C58B"/></g><g font-family="Figtree, Arial, sans-serif" font-size="15" font-weight="600"> <rect x="925" y="180" width="657" height="32" rx="15.75" fill="#1C2F41" opacity=".6"/> <text x="940" y="201" fill="#FCFAF5">FOTO AANLEVEREN · Gerechten en drankjes op het terras, zee op de achtergrond</text></g></svg>