<svg xmlns="http://www.w3.org/2000/svg" viewBox="0 0 1000 1250" width="1000" height="1250" preserveAspectRatio="xMidYMid slice" role="img"><title>Familie Herwegh / het team</title><defs></defs><linearGradient id="sky" x1="0" y1="0" x2="0" y2="1"><stop offset="0" stop-color="#F3C98B"/><stop offset=".6" stop-color="#F6DDB4"/><stop offset="1" stop-color="#F8E9CF"/></linearGradient> <rect width="1000" height="620" fill="url(#sky)"/><linearGradient id="sea" x1="0" y1="0" x2="0" y2="1"><stop offset="0" stop-color="#4F8792"/><stop offset="1" stop-color="#8FB9BE"/></linearGradient> <rect y="620" width="1000" height="180" fill="url(#sea)"/><rect x="0" y="626" width="60" height="2" rx="1" fill="#fff" opacity="0.18"/><rect x="397" y="639" width="97" height="2" rx="1" fill="#fff" opacity="0.24"/><rect x="794" y="652" width="134" height="2" rx="1" fill="#fff" opacity="0.30"/><rect x="191" y="665" width="171" height="2" rx="1" fill="#fff" opacity="0.18"/><rect x="588" y="677" width="208" height="2" rx="1" fill="#fff" opacity="0.24"/><rect x="985" y="690" width="65" height="2" rx="1" fill="#fff" opacity="0.30"/><rect x="382" y="703" width="102" height="2" rx="1" fill="#fff" opacity="0.18"/><rect x="779" y="716" width="139" height="2" rx="1" fill="#fff" opacity="0.24"/><rect x="176" y="729" width="176" height="2" rx="1" fill="#fff" opacity="0.30"/><rect x="573" y="742" width="213" height="2" rx="1" fill="#fff" opacity="0.18"/><rect x="970" y="755" width="70" height="2" rx="1" fill="#fff" opacity="0.24"/><rect x="367" y="767" width="107" height="2" rx="1" fill="#fff" opacity="0.30"/><rect x="764" y="780" width="144" height="2" rx="1" fill="#fff" opacity="0.18"/><rect x="161" y="793" width="181" height="2" rx="1" fill="#fff" opacity="0.24"/><linearGradient id="beach" x1="0" y1="0" x2="0" y2="1"><stop offset="0" stop-color="#D9C9A8"/><stop offset=".12" stop-color="#EBD3AE"/><stop offset="1" stop-color="#E6D2AE"/></linearGradient> <path d="M0 800 Q 300 792 600 804 T 1000 800 V 1250 H 0 Z" fill="url(#beach)"/> <path d="M0 803 Q 300 795 600 807 T 1000 803" stroke="#fff" stroke-width="3" fill="none" opacity=".7"/><g transform="translate(330 1080) scale(3)" fill="#1C2F41" opacity=".85"> <circle cx="0" cy="-92" r="12"/><path d="M-14 -78 h28 l6 40 h-10 l-2 38 h-16 l-2 -38 h-10 z"/> <circle cx="42" cy="-80" r="10"/><path d="M30 -68 h24 l5 34 h-8 l-2 34 h-14 l-2 -34 h-8 z"/> <circle cx="74" cy="-56" r="8"/><path d="M65 -46 h18 l4 24 h-6 l-1 22 h-12 l-1 -22 h-6 z"/> </g><g font-family="Figtree, Arial, sans-serif" font-size="13" font-weight="600"> <rect x="643" y="225" width="341" height="27" rx="13.65" fill="#1C2F41" opacity=".6"/> <text x="656" y="243" fill="#FCFAF5">FOTO AANLEVEREN · Familie Herwegh / het team</text></g></svg>