<svg xmlns="http://www.w3.org/2000/svg" viewBox="0 0 1600 1000" width="1600" height="1000" preserveAspectRatio="xMidYMid slice" role="img"><title>Zonsondergang vanaf het strand</title><defs></defs><linearGradient id="sky" x1="0" y1="0" x2="0" y2="1"><stop offset="0" stop-color="#C9786A"/><stop offset=".6" stop-color="#EBA86F"/><stop offset="1" stop-color="#F6D8A8"/></linearGradient> <rect width="1600" height="560" fill="url(#sky)"/><radialGradient id="glow"><stop offset="0" stop-color="#FFE3B0" stop-opacity=".9"/><stop offset="1" stop-color="#FFE3B0" stop-opacity="0"/></radialGradient> <circle cx="800" cy="520" r="240" fill="url(#glow)"/><circle cx="800" cy="520" r="60" fill="#FFE3B0"/><linearGradient id="sea" x1="0" y1="0" x2="0" y2="1"><stop offset="0" stop-color="#5E7F86"/><stop offset="1" stop-color="#8FB9BE"/></linearGradient> <rect y="560" width="1600" height="200" fill="url(#sea)"/><rect x="0" y="566" width="60" height="2" rx="1" fill="#fff" opacity="0.18"/><rect x="397" y="580" width="97" height="2" rx="1" fill="#fff" opacity="0.24"/><rect x="794" y="595" width="134" height="2" rx="1" fill="#fff" opacity="0.30"/><rect x="1191" y="609" width="171" height="2" rx="1" fill="#fff" opacity="0.18"/><rect x="1588" y="623" width="208" height="2" rx="1" fill="#fff" opacity="0.24"/><rect x="385" y="637" width="65" height="2" rx="1" fill="#fff" opacity="0.30"/><rect x="782" y="652" width="102" height="2" rx="1" fill="#fff" opacity="0.18"/><rect x="1179" y="666" width="139" height="2" rx="1" fill="#fff" opacity="0.24"/><rect x="1576" y="680" width="176" height="2" rx="1" fill="#fff" opacity="0.30"/><rect x="373" y="695" width="213" height="2" rx="1" fill="#fff" opacity="0.18"/><rect x="770" y="709" width="70" height="2" rx="1" fill="#fff" opacity="0.24"/><rect x="1167" y="723" width="107" height="2" rx="1" fill="#fff" opacity="0.30"/><rect x="1564" y="737" width="144" height="2" rx="1" fill="#fff" opacity="0.18"/><rect x="361" y="752" width="181" height="2" rx="1" fill="#fff" opacity="0.24"/><g transform="translate(1050 552) scale(1)" opacity="0.85"> <rect x="34" y="-22" width="16" height="8.5" fill="#B5553F"/><rect x="34" y="-31" width="16" height="8.5" fill="#C99A4B"/><rect x="51" y="-22" width="16" height="8.5" fill="#2F6F7E"/><rect x="51" y="-31" width="16" height="8.5" fill="#6F7D45"/><rect x="68" y="-22" width="16" height="8.5" fill="#C99A4B"/><rect x="68" y="-31" width="16" height="8.5" fill="#8B7B69"/><rect x="85" y="-22" width="16" height="8.5" fill="#6F7D45"/><rect x="85" y="-31" width="16" height="8.5" fill="#B5553F"/><rect x="102" y="-22" width="16" height="8.5" fill="#8B7B69"/><rect x="102" y="-31" width="16" height="8.5" fill="#2F6F7E"/><rect x="119" y="-22" width="16" height="8.5" fill="#B5553F"/><rect x="119" y="-31" width="16" height="8.5" fill="#C99A4B"/><rect x="136" y="-22" width="16" height="8.5" fill="#2F6F7E"/><rect x="136" y="-31" width="16" height="8.5" fill="#6F7D45"/><rect x="153" y="-22" width="16" height="8.5" fill="#C99A4B"/><rect x="153" y="-31" width="16" height="8.5" fill="#8B7B69"/><rect x="170" y="-22" width="16" height="8.5" fill="#6F7D45"/><rect x="170" y="-31" width="16" height="8.5" fill="#B5553F"/> <rect x="194" y="-44" width="18" height="36" fill="#FCFAF5"/><rect x="190" y="-48" width="26" height="6" fill="#2A2F3A"/><rect x="200" y="-60" width="4" height="12" fill="#2A2F3A"/> <path d="M0 -6 H240 L228 10 H14 Z" fill="#2A2F3A"/><rect x="10" y="-6" width="226" height="3" fill="#B5553F"/> </g><linearGradient id="beach" x1="0" y1="0" x2="0" y2="1"><stop offset="0" stop-color="#D9C9A8"/><stop offset=".12" stop-color="#EBD3AE"/><stop offset="1" stop-color="#E6D2AE"/></linearGradient> <path d="M0 760 Q 480 752 960 764 T 1600 760 V 1000 H 0 Z" fill="url(#beach)"/> <path d="M0 763 Q 480 755 960 767 T 1600 763" stroke="#fff" stroke-width="3" fill="none" opacity=".7"/><g transform="translate(300 900) scale(1)" fill="#1C2F41" opacity=".85"> <circle cx="0" cy="-92" r="12"/><path d="M-14 -78 h28 l6 40 h-10 l-2 38 h-16 l-2 -38 h-10 z"/> <circle cx="42" cy="-80" r="10"/><path d="M30 -68 h24 l5 34 h-8 l-2 34 h-14 l-2 -34 h-8 z"/> <circle cx="74" cy="-56" r="8"/><path d="M65 -46 h18 l4 24 h-6 l-1 22 h-12 l-1 -22 h-6 z"/> </g><g font-family="Figtree, Arial, sans-serif" font-size="15" font-weight="600"> <rect x="1156" y="180" width="426" height="32" rx="15.75" fill="#1C2F41" opacity=".6"/> <text x="1171" y="201" fill="#FCFAF5">FOTO AANLEVEREN · Zonsondergang vanaf het strand</text></g></svg>