<svg xmlns="http://www.w3.org/2000/svg" viewBox="0 0 1800 1200" width="1800" height="1200" preserveAspectRatio="xMidYMid slice"><defs><filter id="grain" x="0" y="0" width="100%" height="100%"><feTurbulence type="fractalNoise" baseFrequency=".9" numOctaves="2" stitchTiles="stitch"/><feColorMatrix values="0 0 0 0 0  0 0 0 0 0  0 0 0 0 0  0 0 0 .07 0"/><feComposite in2="SourceGraphic" operator="in"/></filter></defs><rect width="1800" height="1200" fill="#18271f"/><path d="M0 144 L60 159 L120 174 L180 188 L240 203 L300 216 L360 229 L420 240 L480 251 L540 260 L600 269 L660 276 L720 281 L780 285 L840 287 L900 288 L960 287 L1020 285 L1080 281 L1140 276 L1200 269 L1260 260 L1320 251 L1380 240 L1440 229 L1500 216 L1560 203 L1620 188 L1680 174 L1740 159 L1800 144" stroke="#57665a" stroke-width="2" fill="none"/><circle cx="60" cy="173" r="36" fill="#f3d9a0" opacity=".08"/><circle cx="60" cy="173" r="9" fill="#ffe7b0"/><circle cx="180" cy="202" r="36" fill="#f3d9a0" opacity=".08"/><circle cx="180" cy="202" r="9" fill="#ffe7b0"/><circle cx="300" cy="230" r="36" fill="#f3d9a0" opacity=".08"/><circle cx="300" cy="230" r="9" fill="#ffe7b0"/><circle cx="420" cy="254" r="36" fill="#f3d9a0" opacity=".08"/><circle cx="420" cy="254" r="9" fill="#ffe7b0"/><circle cx="540" cy="274" r="36" fill="#f3d9a0" opacity=".08"/><circle cx="540" cy="274" r="9" fill="#ffe7b0"/><circle cx="660" cy="290" r="36" fill="#f3d9a0" opacity=".08"/><circle cx="660" cy="290" r="9" fill="#ffe7b0"/><circle cx="780" cy="299" r="36" fill="#f3d9a0" opacity=".08"/><circle cx="780" cy="299" r="9" fill="#ffe7b0"/><circle cx="900" cy="302" r="36" fill="#f3d9a0" opacity=".08"/><circle cx="900" cy="302" r="9" fill="#ffe7b0"/><circle cx="1020" cy="299" r="36" fill="#f3d9a0" opacity=".08"/><circle cx="1020" cy="299" r="9" fill="#ffe7b0"/><circle cx="1140" cy="290" r="36" fill="#f3d9a0" opacity=".08"/><circle cx="1140" cy="290" r="9" fill="#ffe7b0"/><circle cx="1260" cy="274" r="36" fill="#f3d9a0" opacity=".08"/><circle cx="1260" cy="274" r="9" fill="#ffe7b0"/><circle cx="1380" cy="254" r="36" fill="#f3d9a0" opacity=".08"/><circle cx="1380" cy="254" r="9" fill="#ffe7b0"/><circle cx="1500" cy="230" r="36" fill="#f3d9a0" opacity=".08"/><circle cx="1500" cy="230" r="9" fill="#ffe7b0"/><circle cx="1620" cy="202" r="36" fill="#f3d9a0" opacity=".08"/><circle cx="1620" cy="202" r="9" fill="#ffe7b0"/><circle cx="1740" cy="173" r="36" fill="#f3d9a0" opacity=".08"/><circle cx="1740" cy="173" r="9" fill="#ffe7b0"/><path d="M0 264 L60 279 L120 294 L180 308 L240 323 L300 336 L360 349 L420 360 L480 371 L540 380 L600 389 L660 396 L720 401 L780 405 L840 407 L900 408 L960 407 L1020 405 L1080 401 L1140 396 L1200 389 L1260 380 L1320 371 L1380 360 L1440 349 L1500 336 L1560 323 L1620 308 L1680 294 L1740 279 L1800 264" stroke="#57665a" stroke-width="2" fill="none"/><circle cx="60" cy="293" r="36" fill="#f3d9a0" opacity=".08"/><circle cx="60" cy="293" r="9" fill="#ffe7b0"/><circle cx="180" cy="322" r="36" fill="#f3d9a0" opacity=".08"/><circle cx="180" cy="322" r="9" fill="#ffe7b0"/><circle cx="300" cy="350" r="36" fill="#f3d9a0" opacity=".08"/><circle cx="300" cy="350" r="9" fill="#ffe7b0"/><circle cx="420" cy="374" r="36" fill="#f3d9a0" opacity=".08"/><circle cx="420" cy="374" r="9" fill="#ffe7b0"/><circle cx="540" cy="394" r="36" fill="#f3d9a0" opacity=".08"/><circle cx="540" cy="394" r="9" fill="#ffe7b0"/><circle cx="660" cy="410" r="36" fill="#f3d9a0" opacity=".08"/><circle cx="660" cy="410" r="9" fill="#ffe7b0"/><circle cx="780" cy="419" r="36" fill="#f3d9a0" opacity=".08"/><circle cx="780" cy="419" r="9" fill="#ffe7b0"/><circle cx="900" cy="422" r="36" fill="#f3d9a0" opacity=".08"/><circle cx="900" cy="422" r="9" fill="#ffe7b0"/><circle cx="1020" cy="419" r="36" fill="#f3d9a0" opacity=".08"/><circle cx="1020" cy="419" r="9" fill="#ffe7b0"/><circle cx="1140" cy="410" r="36" fill="#f3d9a0" opacity=".08"/><circle cx="1140" cy="410" r="9" fill="#ffe7b0"/><circle cx="1260" cy="394" r="36" fill="#f3d9a0" opacity=".08"/><circle cx="1260" cy="394" r="9" fill="#ffe7b0"/><circle cx="1380" cy="374" r="36" fill="#f3d9a0" opacity=".08"/><circle cx="1380" cy="374" r="9" fill="#ffe7b0"/><circle cx="1500" cy="350" r="36" fill="#f3d9a0" opacity=".08"/><circle cx="1500" cy="350" r="9" fill="#ffe7b0"/><circle cx="1620" cy="322" r="36" fill="#f3d9a0" opacity=".08"/><circle cx="1620" cy="322" r="9" fill="#ffe7b0"/><circle cx="1740" cy="293" r="36" fill="#f3d9a0" opacity=".08"/><circle cx="1740" cy="293" r="9" fill="#ffe7b0"/><rect x="144" y="840" width="1512" height="60" fill="#e6dac6"/><rect x="198" y="744" width="10" height="96" fill="#c8b495" opacity=".8"/><circle cx="203" cy="720" r="7" fill="#ffd98a" opacity=".9"/><rect x="302" y="744" width="10" height="96" fill="#c8b495" opacity=".8"/><circle cx="307" cy="720" r="7" fill="#ffd98a" opacity=".9"/><rect x="407" y="744" width="10" height="96" fill="#c8b495" opacity=".8"/><circle cx="412" cy="720" r="7" fill="#ffd98a" opacity=".9"/><rect x="511" y="744" width="10" height="96" fill="#c8b495" opacity=".8"/><circle cx="516" cy="720" r="7" fill="#ffd98a" opacity=".9"/><rect x="616" y="744" width="10" height="96" fill="#c8b495" opacity=".8"/><circle cx="621" cy="720" r="7" fill="#ffd98a" opacity=".9"/><rect x="720" y="744" width="10" height="96" fill="#c8b495" opacity=".8"/><circle cx="725" cy="720" r="7" fill="#ffd98a" opacity=".9"/><rect x="824" y="744" width="10" height="96" fill="#c8b495" opacity=".8"/><circle cx="829" cy="720" r="7" fill="#ffd98a" opacity=".9"/><rect x="929" y="744" width="10" height="96" fill="#c8b495" opacity=".8"/><circle cx="934" cy="720" r="7" fill="#ffd98a" opacity=".9"/><rect x="1033" y="744" width="10" height="96" fill="#c8b495" opacity=".8"/><circle cx="1038" cy="720" r="7" fill="#ffd98a" opacity=".9"/><rect x="1138" y="744" width="10" height="96" fill="#c8b495" opacity=".8"/><circle cx="1143" cy="720" r="7" fill="#ffd98a" opacity=".9"/><rect x="1242" y="744" width="10" height="96" fill="#c8b495" opacity=".8"/><circle cx="1247" cy="720" r="7" fill="#ffd98a" opacity=".9"/><rect x="1346" y="744" width="10" height="96" fill="#c8b495" opacity=".8"/><circle cx="1351" cy="720" r="7" fill="#ffd98a" opacity=".9"/><rect x="1451" y="744" width="10" height="96" fill="#c8b495" opacity=".8"/><circle cx="1456" cy="720" r="7" fill="#ffd98a" opacity=".9"/><rect x="1555" y="744" width="10" height="96" fill="#c8b495" opacity=".8"/><circle cx="1560" cy="720" r="7" fill="#ffd98a" opacity=".9"/><rect x="180" y="900" width="1440" height="300" fill="#243b31"/><g opacity=".55" font-family="Helvetica, Arial, sans-serif" font-size="20" letter-spacing="2" fill="#F8F5EF"><text x="1760" y="1164" text-anchor="end">FOTO VERVANGEN · FEEST OF BUFFET</text></g><rect width="1800" height="1200" filter="url(#grain)"/></svg>